# xmcd
#
# Track frame offsets:
#	187
#	12737
#	21237
#	39987
#	49962
#	61737
#	70137
#	87312
#	99512
#	118587
#	130287
#	146562
#	160287
#
# Disc length: 2272 seconds
#
# Revision: 0
# Processed by: cddbd v1.5.1PL0 Copyright (c) Steve Scherf et al.
# Submitted via: audiograbber 1.82.01
#
DISCID=b308de0d
DTITLE=Original Hits - Lo Mejor del SOUL -cd1
DYEAR=1900
DGENRE=Soul
TTITLE0=Boogie Bross - Everybody needs somebody
TTITLE1=The Chiffons - He is so fine
TTITLE2=Atlantic Soul Machine - Gimme Some Lovin
TTITLE3=Little Anthony - Shimmi Shimmi
TTITLE4=Martha Reeves - Dancing In the Streets
TTITLE5=The Clovers - Love Potion #9
TTITLE6=Brook Benton - Rainy night In georgia
TTITLE7=Sam and Dave - Hold on i´m comming
TTITLE8=muddy waters - i got modjo working
TTITLE9=percy sledge - sitting on the dock of the bay
TTITLE10=harold melvin - if you don´t know me by now
TTITLE11=eddir floyd - knock on wood
TTITLE12=bogie bross - sweet souls music
EXTD=
EXTT0=
EXTT1=
EXTT2=
EXTT3=
EXTT4=
EXTT5=
EXTT6=
EXTT7=
EXTT8=
EXTT9=
EXTT10=
EXTT11=
EXTT12=
PLAYORDER=
